<?xml version="1.0" standalone="no"?>
<!DOCTYPE svg PUBLIC "-//W3C//DTD SVG 20010904//EN"
 "http://www.w3.org/TR/2001/REC-SVG-20010904/DTD/svg10.dtd">
<svg version="1.0" xmlns="http://www.w3.org/2000/svg"
 width="626.000000pt" height="626.000000pt" viewBox="0 0 626.000000 626.000000"
 preserveAspectRatio="xMidYMid meet">

<g transform="translate(0.000000,626.000000) scale(0.100000,-0.100000)"
fill="#000000" stroke="none">
<path d="M2530 5371 c-92 -28 -171 -95 -245 -205 -109 -165 -190 -400 -245
-715 -27 -154 -27 -163 7 -159 26 3 27 6 48 133 91 544 273 869 498 891 l52 5
-30 -22 c-122 -93 -187 -230 -216 -455 -14 -113 -6 -414 15 -564 14 -100 13
-110 -10 -110 -16 0 -15 2 -16 -60 -1 -74 1 -80 27 -105 16 -17 35 -25 58 -25
19 0 55 -9 81 -20 26 -12 117 -31 215 -46 246 -36 328 -69 414 -164 25 -28 54
-68 64 -90 15 -34 33 -52 33 -35 0 19 -47 91 -89 137 -87 95 -188 137 -399
163 -122 15 -217 36 -255 56 -16 9 -16 12 4 38 15 21 20 39 17 65 -2 20 -2 35
1 34 120 -59 226 -109 347 -161 298 -129 410 -194 449 -262 32 -53 32 -97 0
-152 -14 -23 -22 -43 -16 -43 16 0 51 85 51 126 0 64 -36 113 -122 170 -71 47
-193 105 -508 243 -63 28 -149 68 -190 89 -85 45 -79 32 -105 221 -20 153 -21
440 0 548 19 98 47 182 80 239 33 56 106 119 160 137 43 15 43 15 92 -18 65
-43 165 -152 225 -244 124 -189 217 -446 259 -713 12 -77 12 -78 41 -78 29 0
29 0 23 48 -54 381 -207 738 -406 945 -38 40 -69 73 -69 74 0 1 18 -4 40 -12
209 -74 423 -405 603 -931 53 -155 55 -167 33 -218 -31 -69 8 -136 79 -136 43
0 85 47 85 94 0 37 -30 81 -60 91 -11 4 -20 11 -20 17 0 5 -6 24 -14 41 -8 18
-24 64 -36 102 -12 39 -47 133 -77 210 -177 451 -375 720 -585 792 -22 7 -67
14 -101 14 -33 1 -78 7 -100 15 -42 15 -145 17 -187 5z m-100 -1215 c0 -2 -7
-6 -15 -10 -8 -3 -15 -1 -15 4 0 6 7 10 15 10 8 0 15 -2 15 -4z"/>
<path d="M3712 4650 c0 -19 2 -27 5 -17 2 9 2 25 0 35 -3 9 -5 1 -5 -18z"/>
<path d="M1695 3825 c-22 -14 -50 -25 -62 -25 -35 0 -31 -50 7 -93 50 -57 35
-87 -42 -87 -56 0 -57 -5 -24 -75 40 -87 156 -175 212 -161 29 8 49 69 40 120
-5 26 -18 43 -50 66 l-43 31 34 34 c18 18 36 46 39 63 4 21 16 34 40 45 40 19
43 36 12 64 -55 50 -102 55 -163 18z"/>
<path d="M1159 3423 c-13 -16 -12 -17 4 -4 9 7 17 15 17 17 0 8 -8 3 -21 -13z"/>
<path d="M1941 3353 c-1 -12 4 -25 9 -28 12 -7 12 2 0 30 -8 19 -9 19 -9 -2z"/>
<path d="M1090 3293 c-16 -44 -21 -76 -19 -138 1 -44 -2 -125 -6 -181 -10
-127 5 -232 52 -379 46 -141 66 -181 105 -205 45 -27 180 -232 208 -314 l22
-67 -29 -41 c-15 -23 -55 -62 -88 -86 -63 -47 -199 -116 -226 -114 -16 1 -49
-74 -49 -111 0 -25 18 -12 33 25 l12 30 103 4 c61 1 137 11 188 24 47 12 88
20 91 17 2 -3 17 -126 33 -274 16 -147 33 -293 37 -323 l8 -55 40 2 c46 3 80
28 52 39 -10 3 -26 4 -37 1 -11 -3 -20 -4 -20 -2 0 1 14 33 31 71 113 247 166
519 141 711 -10 68 -9 87 3 110 35 67 48 171 40 312 -5 75 -9 168 -10 206 -1
39 -5 84 -9 101 -7 30 -9 31 -84 40 -58 7 -77 13 -77 24 0 12 14 14 80 12 44
-2 112 -7 151 -13 90 -13 343 4 356 23 11 19 10 34 -5 46 -12 10 -26 12 -110
14 -33 1 -75 51 -112 133 -27 60 -32 105 -21 202 8 69 -2 194 -12 163 -3 -8
-8 -17 -12 -20 -9 -7 -45 -102 -45 -120 -1 -44 -28 -91 -60 -104 -37 -16 -48
-42 -60 -146 l-7 -55 62 -40 62 -40 -79 -3 c-43 -2 -96 2 -118 7 -54 14 -166
-3 -227 -33 -27 -12 -48 -18 -48 -13 0 6 37 47 83 91 87 85 137 153 137 185 0
20 18 31 54 31 13 0 31 9 41 20 18 20 18 22 1 38 -16 16 -19 16 -54 -4 -27
-16 -41 -33 -51 -63 -10 -31 -27 -52 -65 -81 -63 -48 -93 -59 -166 -65 l-58
-4 -5 32 c-7 47 -48 112 -58 95 -7 -10 -9 -9 -9 4 0 10 -9 22 -21 28 -16 9
-18 14 -9 25 16 19 5 33 -33 44 -29 9 -30 10 -10 16 20 6 18 10 -25 49 -29 25
-46 48 -44 59 2 9 -2 17 -8 17 -8 0 -11 11 -8 30 3 17 1 33 -3 36 -5 2 -6 11
-2 19 3 8 3 15 0 15 -3 0 -15 -26 -27 -57z"/>
<path d="M1429 3310 c-28 -39 -81 -72 -146 -89 -84 -24 -82 -37 12 -65 33 -10
76 -31 97 -47 56 -45 105 -62 155 -54 23 3 45 10 47 14 3 5 -40 19 -95 32
-139 33 -173 67 -120 120 55 55 82 92 79 108 -2 15 -8 11 -29 -19z"/>
<path d="M3189 1214 c23 -29 27 -64 10 -97 -10 -21 -10 -21 5 -3 29 35 10 126
-25 126 -6 0 -1 -12 10 -26z"/>
<path d="M3090 1149 c0 -22 7 -42 18 -51 20 -17 59 -21 67 -7 3 5 -1 6 -9 3
-17 -7 -22 11 -6 21 6 3 10 18 10 33 -1 23 -2 25 -11 10 -14 -24 -35 -22 -53
4 -16 22 -16 22 -16 -13z m45 -38 c3 -5 2 -12 -3 -15 -5 -3 -9 1 -9 9 0 17 3
19 12 6z"/>
<path d="M3860 1153 c8 -3 18 -11 22 -17 12 -18 9 -91 -4 -106 -11 -12 -10
-12 3 -2 37 28 22 133 -18 131 -14 0 -15 -2 -3 -6z"/>
<path d="M3770 1087 c0 -36 15 -63 41 -78 15 -8 19 -8 15 0 -4 6 -2 11 4 11 6
0 9 4 6 9 -3 5 1 14 9 21 8 7 15 22 15 34 -1 19 -2 19 -11 4 -14 -25 -45 -22
-63 4 l-16 22 0 -27z"/>
<path d="M2660 993 c0 -3 7 -11 17 -18 9 -7 19 -32 23 -56 l7 -44 2 38 c0 21
-3 46 -9 56 -9 18 -40 36 -40 24z"/>
<path d="M2580 907 c0 -41 28 -77 58 -76 13 0 12 2 -5 9 -13 5 -23 11 -23 14
0 2 10 2 23 -1 18 -4 19 -3 7 6 -13 9 -13 11 1 11 19 0 29 20 28 53 l0 22 -9
-22 c-12 -29 -44 -30 -64 -1 -16 22 -16 22 -16 -15z"/>
<path d="M3273 916 c20 -20 23 -77 5 -109 -10 -20 -10 -21 5 -9 35 30 27 117
-13 130 -11 4 -10 1 3 -12z"/>
<path d="M3248 868 c-4 -32 -42 -36 -62 -6 l-16 22 0 -27 c0 -36 15 -63 41
-78 16 -8 20 -8 14 1 -4 6 2 20 14 31 12 12 21 32 21 49 0 35 -7 40 -12 8z"/>
</g>
</svg>
